<svg width="52" height="54" viewBox="0 0 52 54" fill="none" xmlns="http://www.w3.org/2000/svg">
<path fill-rule="evenodd" clip-rule="evenodd" d="M8.00406 21.0619C8.00406 21.0619 8.00406 21.0619 8.00406 21.0619L4.18216 45.8895L2.29092 45.5987L4.18216 45.8895C3.86061 47.9783 5.4777 49.8621 7.59237 49.8621H44.4077C46.5222 49.8621 48.1394 47.9783 47.8178 45.8895L47.8178 45.8895L43.996 21.0619C43.737 19.3797 42.2887 18.1379 40.5859 18.1379H11.4143C9.71133 18.1379 8.26304 19.3797 8.00406 21.0619ZM3.9118 20.4327C4.48152 16.7319 7.66773 14 11.4143 14H40.5859C44.3323 14 47.5185 16.7319 48.0882 20.4327L51.9101 45.2603C51.9101 45.2603 51.9101 45.2603 51.9101 45.2603C52.6175 49.8557 49.0598 54 44.4077 54H7.59237C2.94013 54 -0.617524 49.8557 0.0898998 45.2603L3.9118 20.4327L3.9118 20.4327Z" fill="#56CAFC"/>
<path fill-rule="evenodd" clip-rule="evenodd" d="M18 7.85714C18 3.51778 21.5816 0 26 0C30.4184 0 34 3.51778 34 7.85714C34 9.04061 33.0232 10 31.8182 10C30.6132 10 29.6364 9.04061 29.6364 7.85714C29.6364 5.88468 28.0084 4.28571 26 4.28571C23.9916 4.28571 22.3636 5.88468 22.3636 7.85714C22.3636 9.04061 21.3868 10 20.1818 10C18.9768 10 18 9.04061 18 7.85714Z" fill="#56CAFC"/>
</svg>
