<svg width="30" height="52" viewBox="0 0 30 52" fill="none" xmlns="http://www.w3.org/2000/svg">
<path fill-rule="evenodd" clip-rule="evenodd" d="M11.5288 3.98856C14.1072 1.43468 17.6046 0 21.2513 0H28.7528C29.4416 0 30 0.553033 30 1.23523V11.1411C30 11.8233 29.4416 12.3764 28.7528 12.3764H21.2513C20.9189 12.3764 20.6 12.5072 20.3652 12.7398M11.5288 3.98856C8.95011 6.54235 7.50151 10.006 7.50151 13.6176V19.8118H1.24722C0.558399 19.8118 0 20.3648 0 21.047V30.9529C0 31.6352 0.558399 32.1882 1.24722 32.1882H7.50151V50.7648C7.50151 51.447 8.05991 52 8.74873 52H18.7508C19.4396 52 19.998 51.447 19.998 50.7648V32.1882H26.2523C26.8246 32.1882 27.3234 31.8024 27.4622 31.2525L29.9627 21.3466C30.0559 20.9776 29.9722 20.5867 29.7358 20.2869C29.4995 19.9871 29.1368 19.8118 28.7528 19.8118H19.998V13.6176C19.998 13.2885 20.13 12.9728 20.3651 12.7398M21.2513 2.47047C18.2661 2.47047 15.4032 3.6449 13.2927 5.73536L13.2926 5.73542C11.1818 7.8259 9.99595 10.6612 9.99595 13.6176V21.047C9.99595 21.7292 9.43755 22.2823 8.74873 22.2823H2.49444V29.7177H8.74873C9.43755 29.7177 9.99595 30.2708 9.99595 30.9529V49.5295H17.5035V30.9529C17.5035 30.2708 18.0619 29.7177 18.7508 29.7177H25.2785L27.1554 22.2823H18.7508C18.0619 22.2823 17.5035 21.7292 17.5035 21.047V13.6176C17.5035 12.6331 17.8986 11.6891 18.6011 10.9931L18.6012 10.9931C19.304 10.2969 20.2574 9.90591 21.2513 9.90591H27.5056V2.47047H21.2513Z" fill="#56CAFC"/>
</svg>
