<svg width="48" height="52" viewBox="0 0 48 52" fill="none" xmlns="http://www.w3.org/2000/svg">
<path fill-rule="evenodd" clip-rule="evenodd" d="M4.22827 8.02286L23.3241 3.79683C23.7693 3.69833 24.2308 3.69833 24.676 3.79683L43.7718 8.02287C44.0994 8.09536 44.2995 8.39479 44.2549 8.70589L39.5925 41.2082C39.5266 41.6709 39.2957 43.2899 37.5003 44.8553C35.6462 46.4721 31.836 48.2771 24 48.2771C16.164 48.2771 12.3539 46.4721 10.4998 44.8553C8.70449 43.2899 8.47357 41.671 8.40756 41.2082L8.40473 41.1884L3.74513 8.7059C3.70051 8.39484 3.90062 8.09537 4.22827 8.02286ZM25.4869 0.162515C24.5075 -0.0541717 23.4926 -0.0541717 22.5132 0.162515L3.4173 4.38858C1.20242 4.87874 -0.279392 6.9757 0.0443385 9.23241L4.70394 41.7149C4.81781 42.5088 5.22999 45.2086 8.0371 47.6563C10.8119 50.0759 15.6365 52 24 52C32.3636 52 37.1882 50.0759 39.963 47.6563C42.7701 45.2086 43.1823 42.5089 43.2962 41.7149L47.9557 9.23239C48.2794 6.97577 46.7977 4.87875 44.5827 4.38858L25.4869 0.162515ZM19.4648 14C18.462 14 17.649 14.813 17.649 15.8158V19.649H13.8158C12.813 19.649 12 20.462 12 21.4648V29.5352C12 30.538 12.813 31.351 13.8158 31.351H17.649V35.1842C17.649 36.187 18.462 37 19.4648 37H27.5352C28.538 37 29.351 36.187 29.351 35.1842V31.351H33.1842C34.187 31.351 35 30.538 35 29.5352V21.4648C35 20.462 34.187 19.649 33.1842 19.649H29.351V15.8158C29.351 14.813 28.538 14 27.5352 14H19.4648ZM21.2806 21.4648V17.6316H25.7194V21.4648C25.7194 22.4677 26.5323 23.2806 27.5352 23.2806H31.3684V27.7194H27.5352C26.5323 27.7194 25.7194 28.5323 25.7194 29.5352V33.3684H21.2806V29.5352C21.2806 28.5323 20.4677 27.7194 19.4648 27.7194H15.6316V23.2806H19.4648C20.4677 23.2806 21.2806 22.4677 21.2806 21.4648Z" fill="#56CAFC"/>
</svg>
