<svg width="52" height="46" viewBox="0 0 52 46" fill="none" xmlns="http://www.w3.org/2000/svg">
<path fill-rule="evenodd" clip-rule="evenodd" d="M24.9571 0.298672C25.5973 -0.0995572 26.4027 -0.0995572 27.0429 0.298672L51.0426 15.227C51.9851 15.8133 52.2823 17.0662 51.7063 18.0255C51.1303 18.9849 49.8993 19.2873 48.9568 18.701L26 4.42139L3.04315 18.701C2.10065 19.2873 0.869691 18.9849 0.29372 18.0255C-0.282252 17.0662 0.0148776 15.8133 0.957376 15.227L24.9571 0.298672Z" fill="#56CAFC"/>
<path fill-rule="evenodd" clip-rule="evenodd" d="M7.03226 24C8.15464 24 9.06452 24.8691 9.06452 25.9412V42.1176H42.9355V25.9412C42.9355 24.8691 43.8454 24 44.9677 24C46.0901 24 47 24.8691 47 25.9412V42.5059C47 44.4357 45.3623 46 43.3419 46H8.65806C6.63784 46 5 44.4358 5 42.5059V25.9412C5 24.8691 5.90987 24 7.03226 24Z" fill="#56CAFC"/>
</svg>
