<svg width="52" height="37" viewBox="0 0 52 37" fill="none" xmlns="http://www.w3.org/2000/svg">
<path fill-rule="evenodd" clip-rule="evenodd" d="M12.3303 10.7039C12.9086 9.95739 14.0472 9.77583 14.8734 10.2984L26 17.336L37.1266 10.2984C37.9528 9.77583 39.0914 9.95739 39.6697 10.7039C40.2481 11.4505 40.0472 12.4793 39.221 13.0018L27.0472 20.7017C26.4184 21.0994 25.5816 21.0994 24.9528 20.7017L12.779 13.0018C11.9528 12.4793 11.7519 11.4505 12.3303 10.7039Z" fill="#56CAFC"/>
<path fill-rule="evenodd" clip-rule="evenodd" d="M6.65116 3.58065C4.98146 3.58065 3.62791 4.91657 3.62791 6.56452V30.4355C3.62791 32.0835 4.98145 33.4194 6.65116 33.4194H45.3488C47.0186 33.4194 48.3721 32.0835 48.3721 30.4355V6.56452C48.3721 4.91655 47.0186 3.58065 45.3488 3.58065H6.65116ZM0 6.56452C0 2.93903 2.97783 0 6.65116 0H45.3488C49.0223 0 52 2.93905 52 6.56452V30.4355C52 34.061 49.0222 37 45.3488 37H6.65116C2.97784 37 0 34.0611 0 30.4355V6.56452Z" fill="#56CAFC"/>
</svg>
