<svg width="46" height="46" viewBox="0 0 46 46" fill="none" xmlns="http://www.w3.org/2000/svg">
<path fill-rule="evenodd" clip-rule="evenodd" d="M0.064156 6.32425C-0.463181 2.80855 2.33681 0 5.65341 0H13.7522C14.4266 0 15.0305 0.420957 15.2679 1.05666L18.4104 9.47083C18.5144 9.74934 18.5407 10.0512 18.4866 10.3437L16.912 18.8493C18.8473 23.4327 22.0442 26.5127 27.3463 29.2756L35.6912 27.6472C35.9875 27.5894 36.2939 27.6161 36.5759 27.7243L44.9573 30.9405C45.5851 31.1814 46 31.7877 46 32.4643V40.2575C46 43.7917 42.9077 46.6599 39.2905 45.8672C32.6972 44.4225 20.4825 40.7507 11.928 32.1363L13.0731 30.9832L11.928 32.1363C3.7338 23.8846 0.988355 12.4857 0.0641563 6.32425L1.54577 6.0989L0.064156 6.32425ZM5.65341 3.26139C4.10094 3.26139 3.06668 4.5047 3.26654 5.83716C4.15779 11.779 6.76521 22.3249 14.2182 29.8301C22.0956 37.7627 33.5471 41.2711 39.9791 42.6804L39.9792 42.6804C41.3919 42.99 42.7613 41.9067 42.7613 40.2575V33.588L35.8541 30.9375L27.4156 32.5841C27.0645 32.6526 26.7007 32.6022 26.3811 32.4406C20.132 29.2821 16.0751 25.5375 13.7287 19.6304C13.6147 19.3434 13.5841 19.0297 13.6403 18.7259L15.22 10.1932L12.6311 3.26139H5.65341Z" fill="#56CAFC"/>
</svg>
