<svg width="51" height="44" viewBox="0 0 51 44" fill="none" xmlns="http://www.w3.org/2000/svg">
<path fill-rule="evenodd" clip-rule="evenodd" d="M16.5 24.5478C9.15106 24.5478 3.19355 31.3518 3.19355 39.7451V42.1767C3.19355 43.1839 2.47865 44.0004 1.59677 44.0004C0.7149 44.0004 0 43.1839 0 42.1767V39.7451C0 29.3374 7.38731 20.9004 16.5 20.9004C25.6127 20.9004 33 29.3375 33 39.7451V42.1767C33 43.1839 32.2851 44.0004 31.4032 44.0004C30.5214 44.0004 29.8065 43.1839 29.8065 42.1767V39.7451C29.8065 31.3518 23.849 24.5478 16.5 24.5478Z" fill="#56CAFC"/>
<path fill-rule="evenodd" clip-rule="evenodd" d="M38.5 17.8355C33.3974 17.8355 29.2609 22.3207 29.2609 27.8534C29.2609 28.8297 28.5309 29.6212 27.6304 29.6212C26.73 29.6212 26 28.8297 26 27.8534C26 20.368 31.5965 14.2998 38.5 14.2998C45.4035 14.2998 51 20.368 51 27.8534V29.0319C51 30.0083 50.27 30.7998 49.3696 30.7998C48.4691 30.7998 47.7391 30.0083 47.7391 29.0319V27.8534C47.7391 22.3207 43.6026 17.8355 38.5 17.8355Z" fill="#56CAFC"/>
<path fill-rule="evenodd" clip-rule="evenodd" d="M6 13.2002C6 7.12506 10.701 2.2002 16.5 2.2002C22.2989 2.2002 27 7.12505 27 13.2002C27 19.2752 22.2989 24.2002 16.5 24.2002C10.701 24.2002 6 19.2752 6 13.2002ZM16.5 5.67388C12.5323 5.67388 9.31579 9.04352 9.31579 13.2002C9.31579 17.3568 12.5323 20.7265 16.5 20.7265C20.4676 20.7265 23.6842 17.3568 23.6842 13.2002C23.6842 9.04353 20.4677 5.67388 16.5 5.67388Z" fill="#56CAFC"/>
<path fill-rule="evenodd" clip-rule="evenodd" d="M30 8.8C30 3.93992 33.8055 0 38.5 0C43.1945 0 47 3.93992 47 8.8C47 13.6601 43.1945 17.6 38.5 17.6C33.8055 17.6 30 13.6601 30 8.8ZM38.5 3.52C35.6833 3.52 33.4 5.88393 33.4 8.8C33.4 11.7161 35.6833 14.08 38.5 14.08C41.3167 14.08 43.6 11.7161 43.6 8.8C43.6 5.88393 41.3167 3.52 38.5 3.52Z" fill="#56CAFC"/>
</svg>
