<svg width="52" height="52" viewBox="0 0 52 52" fill="none" xmlns="http://www.w3.org/2000/svg">
<path fill-rule="evenodd" clip-rule="evenodd" d="M0 26C0 11.6406 11.6406 0 26 0C40.3593 0 52 11.6406 52 26C52 40.3593 40.3593 52 26 52C11.6406 52 0 40.3593 0 26ZM26 3.62791C13.6442 3.62791 3.62791 13.6442 3.62791 26C3.62791 38.3557 13.6442 48.3721 26 48.3721C38.3556 48.3721 48.3721 38.3556 48.3721 26C48.3721 13.6442 38.3557 3.62791 26 3.62791Z" fill="#56CAFC"/>
<path fill-rule="evenodd" clip-rule="evenodd" d="M1.11015 26.2347C1.45391 25.2615 2.49892 24.7595 3.44424 25.1134L16.8006 30.1132C17.6992 30.4496 18.1921 31.4439 17.9294 32.3903L15.6558 40.5822L17.906 47.5317C18.2241 48.514 17.7084 49.5758 16.7541 49.9033C15.7999 50.2307 14.7684 49.6998 14.4503 48.7175L12.0219 41.2178C11.9058 40.8593 11.8977 40.4731 11.9985 40.1098L13.9607 33.0402L2.19939 28.6375C1.25407 28.2836 0.766396 27.2078 1.11015 26.2347Z" fill="#56CAFC"/>
<path fill-rule="evenodd" clip-rule="evenodd" d="M37.5869 25.0932C37.8385 25.0101 38.1054 24.9821 38.3691 25.0111L49.369 26.2216C50.3753 26.3324 51.1004 27.2301 50.9886 28.2268C50.8768 29.2235 49.9704 29.9417 48.9641 29.8309L38.3643 28.6645L32.6666 30.5455V36.481L37.6253 38.4455C38.2005 38.6733 38.6206 39.1736 38.7421 39.7752L39.9643 45.8278C40.1629 46.8111 39.519 47.7677 38.5261 47.9644C37.5333 48.1611 36.5675 47.5233 36.3689 46.54L35.3414 41.4519L30.1524 39.3962C29.4564 39.1205 29 38.4528 29 37.7103V29.2368C29 28.4552 29.505 27.7613 30.2536 27.5142L37.5869 25.0932Z" fill="#56CAFC"/>
<path fill-rule="evenodd" clip-rule="evenodd" d="M43.4677 8.09523C44.45 8.41764 44.981 9.4631 44.6535 10.4303L43.4035 14.1224C43.1789 14.7858 42.593 15.2673 41.8899 15.3661L34.7499 16.3704V19.4269L38.4285 17.9781C38.65 17.8909 38.8863 17.8461 39.1248 17.8461H44.1247C44.4158 17.8461 44.7029 17.9128 44.9632 18.041L49.9631 20.5024C50.8893 20.9583 51.2647 22.0672 50.8016 22.9791C50.3385 23.891 49.2123 24.2607 48.2861 23.8047L43.6821 21.5382H39.4859L33.5713 23.8676C32.9936 24.0951 32.339 24.0256 31.8238 23.6822C31.3086 23.3388 31 22.7661 31 22.1535V14.7693C31 13.8507 31.6861 13.0718 32.6098 12.9419L40.2125 11.8725L41.096 9.26278C41.4235 8.29555 42.4853 7.77283 43.4677 8.09523Z" fill="#56CAFC"/>
<path fill-rule="evenodd" clip-rule="evenodd" d="M16.8478 2.19395C17.7631 1.74114 18.8761 2.10821 19.3338 3.01382L21.8044 7.90261C22.1017 8.49104 22.0576 9.19201 21.6888 9.73941L16.7476 17.0726C16.475 17.4771 16.0512 17.758 15.5693 17.8534L9.83493 18.9881L4.01052 23.5982C3.21142 24.2307 2.04538 24.1025 1.4061 23.3119C0.766824 22.5213 0.896384 21.3676 1.69548 20.7351L7.87193 15.8463C8.10326 15.6632 8.37558 15.5376 8.66606 15.4802L14.0899 14.4069L18.0089 8.59077L16.0192 4.65357C15.5615 3.74796 15.9325 2.64675 16.8478 2.19395Z" fill="#56CAFC"/>
</svg>
